<?xml version="1.0" standalone="no"?>
<!DOCTYPE svg PUBLIC "-//W3C//DTD SVG 20010904//EN"
 "http://www.w3.org/TR/2001/REC-SVG-20010904/DTD/svg10.dtd">
<svg version="1.0" xmlns="http://www.w3.org/2000/svg"
 width="512.000000pt" height="512.000000pt" viewBox="0 0 512.000000 512.000000"
 preserveAspectRatio="xMidYMid meet">

<g transform="translate(0.000000,512.000000) scale(0.100000,-0.100000)"
fill="#000000" stroke="none">
<path d="M2389 4680 c-630 -107 -1030 -737 -853 -1346 105 -364 391 -642 762
-741 86 -23 116 -26 262 -26 146 0 176 3 262 26 371 99 657 376 762 741 174
600 -218 1231 -834 1342 -80 14 -286 17 -361 4z m338 -436 c271 -70 474 -335
473 -616 -1 -290 -211 -557 -490 -622 -36 -9 -103 -16 -150 -16 -179 0 -318
58 -446 185 -93 92 -154 201 -179 320 -75 359 167 709 530 764 71 11 188 4
262 -15z"/>
<path d="M1509 2114 c-434 -78 -782 -436 -854 -879 -22 -132 -21 -621 1 -673
33 -79 111 -131 197 -132 85 0 149 39 190 115 21 38 22 58 28 350 6 338 7 344
70 466 76 147 212 262 372 316 l82 28 965 0 965 0 82 -28 c160 -54 296 -169
372 -316 63 -122 64 -128 70 -466 6 -292 7 -312 28 -350 41 -76 105 -115 190
-115 91 1 179 64 203 148 18 58 7 627 -13 713 -45 193 -136 363 -269 504 -164
174 -360 281 -587 320 -119 21 -1976 20 -2092 -1z"/>
</g>
</svg>
